Coordinates
version=1
nRows=24
nColumns=24
inDegrees=yes

Units are S.I. units (second, meters, Newtons, ...)
Angles are in degrees.

endheader
time	pelvis_tilt	pelvis_list	pelvis_rotation	pelvis_tx	pelvis_ty	pelvis_tz	hip_flexion_r	hip_adduction_r	hip_rotation_r	knee_angle_r	ankle_angle_r	subtalar_angle_r	mtp_angle_r	hip_flexion_l	hip_adduction_l	hip_rotation_l	knee_angle_l	ankle_angle_l	subtalar_angle_l	mtp_angle_l	lumbar_extension	lumbar_bending	lumbar_rotation
      3.86000000	    -13.41946867	      4.24410360	    -14.33709575	      1.94484761	     -0.03563945	     -0.38794865	     -4.52394401	     -2.09693079	      7.78788342	     -9.26734762	      4.69790115	      9.41467933	     15.23704227	     38.40549591	     -4.34473210	    -20.54483273	     -2.89399049	    -14.44662640	     15.06502121	     13.41409325	     12.38081470	     -2.56164898	      9.11478634
      3.86500000	    -13.47389934	      4.27507079	    -14.46790357	      1.95135872	     -0.03637879	     -0.38794360	     -4.64765768	     -2.27560481	      7.63933370	     -9.53390331	      4.44358237	     10.01150655	     15.62442459	     38.59316340	     -4.39808683	    -20.86135472	     -3.33661163	    -14.16633034	     15.00822279	     13.26912359	     12.47500764	     -2.58292610	      9.14571737
      3.87000000	    -13.46902398	      4.22843138	    -14.64111435	      1.95777595	     -0.03702607	     -0.38787803	     -4.84472685	     -2.37319925	      7.73008995	     -9.81009796	      4.14240292	     10.34680516	     15.71814133	     38.70296486	     -4.53732992	    -21.06699096	     -3.85123090	    -13.96965246	     14.76079174	     13.28359708	     12.46619206	     -2.53609880	      9.20644550
      3.87500000	    -13.53219514	      4.29402447	    -14.81597510	      1.96449984	     -0.03778282	     -0.38783987	     -4.91613256	     -2.60222666	      7.52672178	    -10.13776727	      3.87478294	     11.10213046	     16.14081670	     38.87730700	     -4.58810621	    -21.32515968	     -4.43615746	    -13.70381614	     14.52386157	     13.08710861	     12.60187181	     -2.56485311	      9.37238347
      3.88000000	    -13.51458377	      4.24861619	    -15.01593949	      1.97109158	     -0.03843492	     -0.38775808	     -5.09420625	     -2.71599541	      7.55312380	    -10.46935225	      3.53776990	     11.54071583	     16.32653515	     38.94569303	     -4.73955574	    -21.46742552	     -5.07442991	    -13.48723421	     14.23233626	     13.05430856	     12.59497711	     -2.50801419	      9.51190711
      3.88500000	    -13.55053774	      4.30724730	    -15.16663957	      1.97798209	     -0.03915730	     -0.38776571	     -5.19202778	     -2.95204933	      7.36098892	    -10.80867775	      3.18895990	     12.27395551	     16.76942952	     39.06031199	     -4.76294446	    -21.67533840	     -5.72825252	    -13.31131912	     13.92675778	     12.83610658	     12.71067060	     -2.54726866	      9.59289872
      3.89000000	    -13.52458460	      4.26725150	    -15.36262301	      1.98476217	     -0.03980189	     -0.38770251	     -5.36281789	     -3.08222519	      7.38526254	    -11.17299777	      2.80628010	     12.74193064	     16.95695721	     39.07976433	     -4.89377606	    -21.80793285	     -6.40710611	    -13.16903051	     13.64662846	     12.81533973	     12.71147716	     -2.49497235	      9.74780609
      3.89500000	    -13.53873209	      4.34274505	    -15.52209631	      1.99181815	     -0.04048356	     -0.38772770	     -5.45182809	     -3.35315722	      7.15900118	    -11.55866988	      2.40025849	     13.53710137	     17.40843731	     39.11732998	     -4.88731673	    -22.01987712	     -7.04206095	    -13.13213829	     13.36763878	     12.68697754	     12.82201248	     -2.54752976	      9.84668086
      3.90000000	    -13.52050905	      4.37840974	    -15.70009543	      1.99885280	     -0.04111876	     -0.38772470	     -5.57134729	     -3.58492781	      7.01758719	    -11.95893634	      1.95027616	     14.21309433	     17.83004138	     39.09495964	     -4.91669410	    -22.17968107	     -7.66473313	    -13.17522715	     13.07997193	     12.67470922	     12.87980144	     -2.56865498	      9.98350353
      3.90500000	    -13.50166946	      4.43309756	    -15.87593510	      2.00596201	     -0.04172356	     -0.38772419	     -5.67173339	     -3.84055216	      6.85446636	    -12.38392961	      1.47072717	     14.90841293	     18.22456022	     39.04660066	     -4.91906601	    -22.34135268	     -8.23890055	    -13.37102837	     12.78143136	     12.75505488	     12.94997248	     -2.60518761	     10.10306261
      3.91000000	    -13.47654145	      4.51164936	    -16.03344982	      2.01311723	     -0.04230340	     -0.38776665	     -5.75487781	     -4.12970494	      6.64539380	    -12.83593573	      0.96498951	     15.66200128	     18.66358595	     38.97861093	     -4.87453625	    -22.47460420	     -8.76130934	    -13.74528743	     12.40824853	     12.94362561	     13.01998475	     -2.67516876	     10.22948829
      3.91500000	    -13.45950005	      4.62416379	    -16.22082625	      2.02035466	     -0.04281913	     -0.38777196	     -5.78899929	     -4.45791004	      6.42920602	    -13.33096254	      0.39875343	     16.44074272	     19.03771473	     38.88376030	     -4.80637279	    -22.57546739	     -9.20273849	    -14.26932963	     11.94853575	     13.17552369	     13.12601427	     -2.76457192	     10.39982810
      3.92000000	    -13.42701158	      4.76013358	    -16.34508868	      2.02756923	     -0.04328424	     -0.38787652	     -5.81941884	     -4.81958139	      6.12644535	    -13.84618678	     -0.19498423	     17.27461869	     19.51583030	     38.78875878	     -4.66266124	    -22.60930022	     -9.60056353	    -15.06714198	     11.32145374	     13.52555281	     13.20559312	     -2.90114837	     10.49757637
      3.92500000	    -13.40578337	      4.94097830	    -16.49161229	      2.03482573	     -0.04367219	     -0.38796155	     -5.78873974	     -5.23098326	      5.83201640	    -14.40737701	     -0.85647760	     18.13016775	     19.95302348	     38.69208066	     -4.48327123	    -22.58777222	     -9.94547436	    -15.97634257	     10.55629967	     13.83241398	     13.32183453	     -3.06947582	     10.65222816
      3.93000000	    -13.37380519	      5.14473433	    -16.61501219	      2.04203953	     -0.04397307	     -0.38807045	     -5.72780909	     -5.67193167	      5.48277515	    -15.01581142	     -1.57426169	     19.01345504	     20.42393748	     38.59738161	     -4.25784295	    -22.45719183	    -10.27513235	    -17.00994003	      9.61214821	     14.11220695	     13.42537920	     -3.27654141	     10.76202921
      3.93500000	    -13.33805222	      5.37996031	    -16.73389174	      2.04925419	     -0.04418752	     -0.38820994	     -5.61870499	     -6.15349992	      5.08836129	    -15.68186718	     -2.37536581	     19.91017821	     20.92173010	     38.51160769	     -3.98847842	    -22.23033519	    -10.61442805	    -18.04369990	      8.49124309	     14.28816112	     13.53439169	     -3.51376845	     10.85210469
      3.94000000	    -13.28587621	      5.59474942	    -16.81200567	      2.05643131	     -0.04429035	     -0.38841084	     -5.51726531	     -6.62727199	      4.63144689	    -16.34294095	     -3.32926483	     20.85013439	     21.60106428	     38.43134177	     -3.69945792	    -21.80386104	    -11.00281812	    -19.03867793	      7.21568096	     14.35696467	     13.60857967	     -3.74745287	     10.93541458
      3.94500000	    -13.27868414	      5.93932628	    -16.93753979	      2.06370080	     -0.04435761	     -0.38847767	     -5.27674397	     -7.22537111	      4.23541064	    -17.09284512	     -4.28650262	     21.77627736	     22.02527135	     38.42010470	     -3.33486749	    -21.41954904	    -11.44061024	    -19.85086485	      5.88760463	     14.08027964	     13.80227278	     -4.08737592	     11.10094866
      3.95000000	    -13.24523681	      6.23826278	    -17.01100687	      2.07085341	     -0.04432756	     -0.38866716	     -5.03480425	     -7.79708831	      3.71460582	    -17.88995976	     -5.38103354	     22.77551573	     22.54566054	     38.41635566	     -2.95845733	    -20.82407425	    -11.96476590	    -20.51807299	      4.42364383	     13.64047685	     13.92649178	     -4.40171826	     11.19483784
      3.95500000	    -13.18359263	      6.46566798	    -16.98562208	      2.07792833	     -0.04420328	     -0.38899656	     -4.83288501	     -8.31203462	      3.02421022	    -18.66780061	     -6.76067222	     23.71662018	     23.67858860	     38.41788382	     -2.56725860	    -19.99744301	    -12.60154494	    -20.90719888	      2.99896525	     12.90861412	     13.97059937	     -4.68679361	     11.14627648
      3.96000000	    -13.16257420	      6.77871014	    -17.03208881	      2.08503010	     -0.04405457	     -0.38918135	     -4.48943880	     -8.91647888	      2.39845766	    -19.54296335	     -8.19596802	     24.68391815	     24.57254195	     38.47197030	     -2.16151134	    -19.31456495	    -13.27561725	    -21.07822989	      1.67826111	     12.09772645	     14.10822999	     -5.02418675	     11.22244041
      3.96500000	    -13.16937950	      7.14959156	    -17.11596760	      2.09216987	     -0.04388898	     -0.38927916	     -4.03826797	     -9.58828037	      1.78757754	    -20.50375969	     -9.69307714	     25.69013964	     25.15488405	     38.56024637	     -1.74608224	    -18.80133666	    -13.96648922	    -21.06545341	      0.53114981	     11.39660428	     14.31411051	     -5.39705963	     11.37181522
      3.97000000	    -13.12421376	      7.35614209	    -17.08508159	      2.09906688	     -0.04357505	     -0.38960477	     -3.68078751	    -10.10424478	      1.05929078	    -21.40085038	    -11.62266486	     26.41700250	     26.76825089	     38.61306382	     -1.37597951	    -18.00861232	    -14.78194344	    -20.66627921	     -0.40659904	     10.15422979	     14.35044215	     -5.65788096	     11.32670715
      3.97500000	    -13.13465185	      7.65119190	    -17.09706697	      2.10602474	     -0.04331458	     -0.38982188	     -3.16198601	    -10.72244778	      0.31641000	    -22.41797795	    -13.58194904	     27.25529199	     27.98196384	     38.71210830	     -0.99665398	    -17.53828271	    -15.54416268	    -20.23008014	     -1.09478902	      9.38479109	     14.50177769	     -5.97504204	     11.37964191
